<svg xmlns="http://www.w3.org/2000/svg" xmlns:xlink="http://www.w3.org/1999/xlink" version="1.1" width="25" height="25" viewBox="0 0 1000 1000" xml:space="preserve">
<desc>Created with Fabric.js 3.5.0</desc>
<defs>
</defs>
<rect x="0" y="0" width="100%" height="100%" fill="rgba(255,255,255,0)"/>
<g transform="matrix(7.398 0 0 7.398 500.0027 500.0028)" id="6331">
<path style="stroke: none; stroke-width: 1; stroke-dasharray: none; stroke-linecap: butt; stroke-dashoffset: 0; stroke-linejoin: miter; stroke-miterlimit: 4; is-custom-font: none; font-file-url: none; fill: rgb(20,191,13); fill-rule: evenodd; opacity: 1;" vector-effect="non-scaling-stroke" transform=" translate(-58.8583, -61.443)" d="M 94.62 2 c -1.46 -1.36 -3.14 -2.09 -5.02 -1.99 c -1.88 0 -3.56 0.73 -4.92 2.2 L 73.59 13.72 l 31.07 30.03 l 11.19 -11.72 c 1.36 -1.36 1.88 -3.14 1.88 -5.02 s -0.73 -3.66 -2.09 -4.92 L 94.62 2 L 94.62 2 L 94.62 2 z M 41.44 109.58 c -4.08 1.36 -8.26 2.62 -12.35 3.98 c -4.08 1.36 -8.16 2.72 -12.35 4.08 c -9.73 3.14 -15.07 4.92 -16.22 5.23 c -1.15 0.31 -0.42 -4.18 1.99 -13.6 l 7.74 -29.61 l 0.64 -0.66 l 30.56 30.56 L 41.44 109.58 L 41.44 109.58 L 41.44 109.58 z M 22.2 67.25 l 42.99 -44.82 l 31.07 29.92 L 52.75 97.8 L 22.2 67.25 L 22.2 67.25 z" stroke-linecap="round"/>
</g>
</svg>