<svg xmlns="http://www.w3.org/2000/svg" xmlns:xlink="http://www.w3.org/1999/xlink" version="1.1" width="50" height="50" viewBox="0 0 256 256" xml:space="preserve">

<defs>
</defs>
<g style="stroke: none; stroke-width: 0; stroke-dasharray: none; stroke-linecap: butt; stroke-linejoin: miter; stroke-miterlimit: 10; fill: none; fill-rule: nonzero; opacity: 1;" transform="translate(1.4065934065934016 1.4065934065934016) scale(2.81 2.81)" >
	<path d="M 45 44.652 c -0.196 0 -0.392 -0.039 -0.576 -0.116 L 0.908 26.21 C 0.358 25.979 0 25.44 0 24.843 s 0.358 -1.136 0.908 -1.367 L 44.425 5.151 c 0.367 -0.156 0.784 -0.155 1.151 0 l 43.516 18.325 c 0.551 0.231 0.908 0.77 0.908 1.367 s -0.357 1.136 -0.908 1.367 L 45.576 44.535 C 45.392 44.613 45.196 44.652 45 44.652 z M 5.307 24.843 L 45 41.559 l 39.693 -16.716 L 45 8.128 L 5.307 24.843 z" style="stroke: none; stroke-width: 1; stroke-dasharray: none; stroke-linecap: butt; stroke-linejoin: miter; stroke-miterlimit: 10; fill: rgb(6,59,36); fill-rule: nonzero; opacity: 1;" transform=" matrix(1 0 0 1 0 0) " stroke-linecap="round" />
	<path d="M 45 64.809 c -0.196 0 -0.392 -0.039 -0.576 -0.116 L 0.908 46.367 c -0.755 -0.318 -1.11 -1.188 -0.791 -1.943 c 0.317 -0.755 1.188 -1.11 1.943 -0.791 L 45 61.715 l 42.94 -18.082 c 0.759 -0.318 1.625 0.037 1.943 0.791 c 0.318 0.755 -0.037 1.625 -0.792 1.943 L 45.576 64.693 C 45.392 64.77 45.196 64.809 45 64.809 z" style="stroke: none; stroke-width: 1; stroke-dasharray: none; stroke-linecap: butt; stroke-linejoin: miter; stroke-miterlimit: 10; fill: rgb(6,59,36); fill-rule: nonzero; opacity: 1;" transform=" matrix(1 0 0 1 0 0) " stroke-linecap="round" />
	<path d="M 45 84.966 c -0.196 0 -0.392 -0.039 -0.576 -0.116 L 0.908 66.525 c -0.755 -0.319 -1.11 -1.188 -0.791 -1.943 c 0.317 -0.755 1.188 -1.11 1.943 -0.792 L 45 81.872 L 87.94 63.79 c 0.759 -0.319 1.625 0.038 1.943 0.792 c 0.318 0.755 -0.037 1.625 -0.792 1.943 L 45.576 84.85 C 45.392 84.927 45.196 84.966 45 84.966 z" style="stroke: none; stroke-width: 1; stroke-dasharray: none; stroke-linecap: butt; stroke-linejoin: miter; stroke-miterlimit: 10; fill: rgb(6,59,36); fill-rule: nonzero; opacity: 1;" transform=" matrix(1 0 0 1 0 0) " stroke-linecap="round" />
</g>
</svg>