<svg xmlns="http://www.w3.org/2000/svg" xmlns:xlink="http://www.w3.org/1999/xlink" version="1.1" width="30" height="30" viewBox="0 0 256 256" xml:space="preserve">

<defs>
</defs>
<g style="stroke: none; stroke-width: 0; stroke-dasharray: none; stroke-linecap: butt; stroke-linejoin: miter; stroke-miterlimit: 10; fill: none; fill-rule: nonzero; opacity: 1;" transform="translate(1.4065934065934016 1.4065934065934016) scale(2.81 2.81)" >
	<path d="M 60.454 90 H 29.546 c -4.053 0 -7.351 -3.298 -7.351 -7.352 V 7.351 C 22.195 3.298 25.493 0 29.546 0 h 30.908 c 4.054 0 7.352 3.298 7.352 7.351 v 75.297 C 67.806 86.702 64.508 90 60.454 90 z M 29.546 2 c -2.951 0 -5.351 2.4 -5.351 5.351 v 75.297 c 0 2.951 2.4 5.352 5.351 5.352 h 30.908 c 2.951 0 5.352 -2.4 5.352 -5.352 V 7.351 C 65.806 4.4 63.405 2 60.454 2 H 29.546 z" style="stroke: none; stroke-width: 1; stroke-dasharray: none; stroke-linecap: butt; stroke-linejoin: miter; stroke-miterlimit: 10; fill: rgb(255,255,255); fill-rule: nonzero; opacity: 1;" transform=" matrix(1 0 0 1 0 0) " stroke-linecap="round" />
	<path d="M 37.052 72.474 c -0.256 0 -0.512 -0.098 -0.707 -0.293 l -3.912 -3.912 c -0.188 -0.188 -0.293 -0.441 -0.293 -0.707 s 0.105 -0.52 0.293 -0.707 l 3.912 -3.911 c 0.391 -0.391 1.023 -0.391 1.414 0 s 0.391 1.023 0 1.414 l -3.205 3.204 l 3.205 3.205 c 0.391 0.391 0.391 1.023 0 1.414 C 37.564 72.376 37.308 72.474 37.052 72.474 z" style="stroke: none; stroke-width: 1; stroke-dasharray: none; stroke-linecap: butt; stroke-linejoin: miter; stroke-miterlimit: 10; fill: rgb(255,255,255); fill-rule: nonzero; opacity: 1;" transform=" matrix(1 0 0 1 0 0) " stroke-linecap="round" />
	<path d="M 41.088 60.614 c -0.256 0 -0.512 -0.098 -0.707 -0.293 c -0.391 -0.391 -0.391 -1.023 0 -1.414 l 3.912 -3.912 c 0.375 -0.375 1.039 -0.375 1.414 0 l 3.912 3.912 c 0.391 0.391 0.391 1.023 0 1.414 s -1.023 0.391 -1.414 0 L 45 57.116 l -3.205 3.205 C 41.6 60.517 41.344 60.614 41.088 60.614 z" style="stroke: none; stroke-width: 1; stroke-dasharray: none; stroke-linecap: butt; stroke-linejoin: miter; stroke-miterlimit: 10; fill: rgb(255,255,255); fill-rule: nonzero; opacity: 1;" transform=" matrix(1 0 0 1 0 0) " stroke-linecap="round" />
	<path d="M 52.948 72.474 c -0.256 0 -0.512 -0.098 -0.707 -0.293 c -0.391 -0.391 -0.391 -1.023 0 -1.414 l 3.204 -3.205 l -3.204 -3.204 c -0.391 -0.391 -0.391 -1.023 0 -1.414 s 1.023 -0.391 1.414 0 l 3.911 3.911 c 0.391 0.391 0.391 1.023 0 1.414 l -3.911 3.912 C 53.46 72.376 53.204 72.474 52.948 72.474 z" style="stroke: none; stroke-width: 1; stroke-dasharray: none; stroke-linecap: butt; stroke-linejoin: miter; stroke-miterlimit: 10; fill: rgb(255,255,255); fill-rule: nonzero; opacity: 1;" transform=" matrix(1 0 0 1 0 0) " stroke-linecap="round" />
	<path d="M 45 80.421 c -0.256 0 -0.512 -0.098 -0.707 -0.293 l -3.912 -3.911 c -0.391 -0.391 -0.391 -1.023 0 -1.414 s 1.023 -0.391 1.414 0 L 45 78.007 l 3.205 -3.204 c 0.391 -0.391 1.023 -0.391 1.414 0 s 0.391 1.023 0 1.414 l -3.912 3.911 C 45.512 80.323 45.256 80.421 45 80.421 z" style="stroke: none; stroke-width: 1; stroke-dasharray: none; stroke-linecap: butt; stroke-linejoin: miter; stroke-miterlimit: 10; fill: rgb(255,255,255); fill-rule: nonzero; opacity: 1;" transform=" matrix(1 0 0 1 0 0) " stroke-linecap="round" />
	<path d="M 47.855 68.562 h -5.711 c -0.552 0 -1 -0.447 -1 -1 s 0.448 -1 1 -1 h 5.711 c 0.553 0 1 0.447 1 1 S 48.408 68.562 47.855 68.562 z" style="stroke: none; stroke-width: 1; stroke-dasharray: none; stroke-linecap: butt; stroke-linejoin: miter; stroke-miterlimit: 10; fill: rgb(255,255,255); fill-rule: nonzero; opacity: 1;" transform=" matrix(1 0 0 1 0 0) " stroke-linecap="round" />
	<path d="M 40.086 42.125 h -6.946 c -0.552 0 -1 -0.448 -1 -1 s 0.448 -1 1 -1 h 6.946 c 0.552 0 1 0.448 1 1 S 40.639 42.125 40.086 42.125 z" style="stroke: none; stroke-width: 1; stroke-dasharray: none; stroke-linecap: butt; stroke-linejoin: miter; stroke-miterlimit: 10; fill: rgb(255,255,255); fill-rule: nonzero; opacity: 1;" transform=" matrix(1 0 0 1 0 0) " stroke-linecap="round" />
	<path d="M 56.859 42.125 h -6.945 c -0.553 0 -1 -0.448 -1 -1 s 0.447 -1 1 -1 h 6.945 c 0.553 0 1 0.448 1 1 S 57.412 42.125 56.859 42.125 z" style="stroke: none; stroke-width: 1; stroke-dasharray: none; stroke-linecap: butt; stroke-linejoin: miter; stroke-miterlimit: 10; fill: rgb(255,255,255); fill-rule: nonzero; opacity: 1;" transform=" matrix(1 0 0 1 0 0) " stroke-linecap="round" />
	<path d="M 40.086 30.631 h -6.946 c -0.552 0 -1 -0.448 -1 -1 s 0.448 -1 1 -1 h 6.946 c 0.552 0 1 0.448 1 1 S 40.639 30.631 40.086 30.631 z" style="stroke: none; stroke-width: 1; stroke-dasharray: none; stroke-linecap: butt; stroke-linejoin: miter; stroke-miterlimit: 10; fill: rgb(255,255,255); fill-rule: nonzero; opacity: 1;" transform=" matrix(1 0 0 1 0 0) " stroke-linecap="round" />
	<path d="M 56.859 30.631 h -6.945 c -0.553 0 -1 -0.448 -1 -1 s 0.447 -1 1 -1 h 6.945 c 0.553 0 1 0.448 1 1 S 57.412 30.631 56.859 30.631 z" style="stroke: none; stroke-width: 1; stroke-dasharray: none; stroke-linecap: butt; stroke-linejoin: miter; stroke-miterlimit: 10; fill: rgb(255,255,255); fill-rule: nonzero; opacity: 1;" transform=" matrix(1 0 0 1 0 0) " stroke-linecap="round" />
	<path d="M 40.086 19.137 h -6.946 c -0.552 0 -1 -0.448 -1 -1 s 0.448 -1 1 -1 h 6.946 c 0.552 0 1 0.448 1 1 S 40.639 19.137 40.086 19.137 z" style="stroke: none; stroke-width: 1; stroke-dasharray: none; stroke-linecap: butt; stroke-linejoin: miter; stroke-miterlimit: 10; fill: rgb(255,255,255); fill-rule: nonzero; opacity: 1;" transform=" matrix(1 0 0 1 0 0) " stroke-linecap="round" />
	<path d="M 56.859 19.137 h -6.945 c -0.553 0 -1 -0.448 -1 -1 s 0.447 -1 1 -1 h 6.945 c 0.553 0 1 0.448 1 1 S 57.412 19.137 56.859 19.137 z" style="stroke: none; stroke-width: 1; stroke-dasharray: none; stroke-linecap: butt; stroke-linejoin: miter; stroke-miterlimit: 10; fill: rgb(255,255,255); fill-rule: nonzero; opacity: 1;" transform=" matrix(1 0 0 1 0 0) " stroke-linecap="round" />
</g>
</svg>