<svg xmlns="http://www.w3.org/2000/svg" xmlns:xlink="http://www.w3.org/1999/xlink" version="1.1" width="256" height="256" viewBox="0 0 256 256" xml:space="preserve">

<defs>
</defs>
<g style="stroke: none; stroke-width: 0; stroke-dasharray: none; stroke-linecap: butt; stroke-linejoin: miter; stroke-miterlimit: 10; fill: none; fill-rule: nonzero; opacity: 1;" transform="translate(1.4065934065934016 1.4065934065934016) scale(2.81 2.81)" >
	<path d="M 36.473 41.92 H 5.447 C 2.444 41.92 0 39.476 0 36.473 V 5.447 C 0 2.444 2.444 0 5.447 0 h 31.025 c 3.003 0 5.447 2.444 5.447 5.447 v 31.025 C 41.92 39.476 39.476 41.92 36.473 41.92 z M 5.447 4 C 4.649 4 4 4.649 4 5.447 v 31.025 c 0 0.798 0.649 1.447 1.447 1.447 h 31.025 c 0.798 0 1.447 -0.649 1.447 -1.447 V 5.447 C 37.92 4.649 37.271 4 36.473 4 H 5.447 z" style="stroke: none; stroke-width: 1; stroke-dasharray: none; stroke-linecap: butt; stroke-linejoin: miter; stroke-miterlimit: 10; fill: rgb(255,255,255); fill-rule: nonzero; opacity: 1;" transform=" matrix(1 0 0 1 0 0) " stroke-linecap="round" />
	<path d="M 84.553 41.92 H 53.527 c -3.004 0 -5.447 -2.444 -5.447 -5.447 V 5.447 C 48.08 2.444 50.523 0 53.527 0 h 31.025 C 87.557 0 90 2.444 90 5.447 v 31.025 C 90 39.476 87.557 41.92 84.553 41.92 z M 53.527 4 c -0.798 0 -1.447 0.649 -1.447 1.447 v 31.025 c 0 0.798 0.649 1.447 1.447 1.447 h 31.025 c 0.798 0 1.447 -0.649 1.447 -1.447 V 5.447 C 86 4.649 85.351 4 84.553 4 H 53.527 z" style="stroke: none; stroke-width: 1; stroke-dasharray: none; stroke-linecap: butt; stroke-linejoin: miter; stroke-miterlimit: 10; fill: rgb(255,255,255); fill-rule: nonzero; opacity: 1;" transform=" matrix(1 0 0 1 0 0) " stroke-linecap="round" />
	<path d="M 36.473 90 H 5.447 C 2.444 90 0 87.557 0 84.553 V 53.527 c 0 -3.004 2.444 -5.447 5.447 -5.447 h 31.025 c 3.003 0 5.447 2.443 5.447 5.447 v 31.025 C 41.92 87.557 39.476 90 36.473 90 z M 5.447 52.08 C 4.649 52.08 4 52.729 4 53.527 v 31.025 C 4 85.351 4.649 86 5.447 86 h 31.025 c 0.798 0 1.447 -0.649 1.447 -1.447 V 53.527 c 0 -0.798 -0.649 -1.447 -1.447 -1.447 H 5.447 z" style="stroke: none; stroke-width: 1; stroke-dasharray: none; stroke-linecap: butt; stroke-linejoin: miter; stroke-miterlimit: 10; fill: rgb(255,255,255); fill-rule: nonzero; opacity: 1;" transform=" matrix(1 0 0 1 0 0) " stroke-linecap="round" />
	<path d="M 71.175 90 h -4.27 c -3.004 0 -5.447 -2.443 -5.447 -5.447 v -7.931 h -7.931 c -3.004 0 -5.447 -2.443 -5.447 -5.447 v -4.27 c 0 -3.004 2.443 -5.447 5.447 -5.447 h 7.931 v -7.931 c 0 -3.004 2.443 -5.447 5.447 -5.447 h 4.27 c 3.004 0 5.447 2.443 5.447 5.447 v 7.931 h 7.931 c 3.004 0 5.447 2.443 5.447 5.447 v 4.27 c 0 3.004 -2.443 5.447 -5.447 5.447 h -7.931 v 7.931 C 76.622 87.557 74.179 90 71.175 90 z M 53.527 65.458 c -0.798 0 -1.447 0.649 -1.447 1.447 v 4.27 c 0 0.798 0.649 1.447 1.447 1.447 h 9.931 c 1.104 0 2 0.896 2 2 v 9.931 c 0 0.798 0.649 1.447 1.447 1.447 h 4.27 c 0.798 0 1.447 -0.649 1.447 -1.447 v -9.931 c 0 -1.104 0.896 -2 2 -2 h 9.931 c 0.798 0 1.447 -0.649 1.447 -1.447 v -4.27 c 0 -0.798 -0.649 -1.447 -1.447 -1.447 h -9.931 c -1.104 0 -2 -0.896 -2 -2 v -9.931 c 0 -0.798 -0.649 -1.447 -1.447 -1.447 h -4.27 c -0.798 0 -1.447 0.649 -1.447 1.447 v 9.931 c 0 1.104 -0.896 2 -2 2 H 53.527 z" style="stroke: none; stroke-width: 1; stroke-dasharray: none; stroke-linecap: butt; stroke-linejoin: miter; stroke-miterlimit: 10; fill: rgb(255,255,255); fill-rule: nonzero; opacity: 1;" transform=" matrix(1 0 0 1 0 0) " stroke-linecap="round" />
</g>
</svg>