<svg xmlns="http://www.w3.org/2000/svg" xmlns:xlink="http://www.w3.org/1999/xlink" version="1.1" width="30" height="30" viewBox="0 0 256 256" xml:space="preserve">

<defs>
</defs>
<g style="stroke: none; stroke-width: 0; stroke-dasharray: none; stroke-linecap: butt; stroke-linejoin: miter; stroke-miterlimit: 10; fill: none; fill-rule: nonzero; opacity: 1;" transform="translate(1.4065934065934016 1.4065934065934016) scale(2.81 2.81)" >
	<path d="M 69.704 75.086 c -0.5 0 -1.005 -0.098 -1.486 -0.297 c -1.453 -0.603 -2.393 -2.008 -2.393 -3.581 v -4.643 h -31.29 c -1.105 0 -2 -0.896 -2 -2 c 0 -1.105 0.896 -2 2 -2 h 31.414 c 2.138 0 3.876 1.738 3.876 3.875 v 4.467 l 16.126 -16.125 L 69.825 38.658 v 4.467 c 0 2.137 -1.738 3.876 -3.876 3.876 H 47.175 c -1.105 0 -2 -0.896 -2 -2 s 0.896 -2 2 -2 h 18.65 v -4.643 c 0 -1.573 0.939 -2.978 2.392 -3.58 c 1.454 -0.603 3.111 -0.272 4.224 0.839 l 16.427 16.427 c 1.51 1.512 1.51 3.969 0.001 5.48 L 72.441 73.949 C 71.698 74.692 70.711 75.086 69.704 75.086 z" style="stroke: none; stroke-width: 1; stroke-dasharray: none; stroke-linecap: butt; stroke-linejoin: miter; stroke-miterlimit: 10; fill: rgb(255,255,255); fill-rule: nonzero; opacity: 1;" transform=" matrix(1 0 0 1 0 0) " stroke-linecap="round" />
	<path d="M 20.296 55.521 c -1.007 0 -1.994 -0.395 -2.737 -1.138 L 1.133 37.958 c -1.511 -1.511 -1.511 -3.97 0 -5.481 l 16.426 -16.426 c 1.112 -1.112 2.77 -1.441 4.223 -0.84 c 1.453 0.602 2.392 2.007 2.392 3.581 v 4.643 h 31.29 c 1.105 0 2 0.896 2 2 s -0.896 2 -2 2 H 24.05 c -2.137 0 -3.876 -1.738 -3.876 -3.875 v -4.467 L 4.05 35.217 l 16.125 16.125 v -4.467 c 0 -2.137 1.739 -3.875 3.876 -3.875 h 23.125 c 1.105 0 2 0.896 2 2 s -0.896 2 -2 2 h -23 v 4.644 c 0 1.573 -0.939 2.978 -2.393 3.58 C 21.3 55.423 20.795 55.521 20.296 55.521 z" style="stroke: none; stroke-width: 1; stroke-dasharray: none; stroke-linecap: butt; stroke-linejoin: miter; stroke-miterlimit: 10; fill: rgb(255,255,255); fill-rule: nonzero; opacity: 1;" transform=" matrix(1 0 0 1 0 0) " stroke-linecap="round" />
</g>
</svg>