<svg xmlns="http://www.w3.org/2000/svg" xmlns:xlink="http://www.w3.org/1999/xlink" version="1.1" width="50" height="50" viewBox="0 0 256 256" xml:space="preserve">

<defs>
</defs>
<g style="stroke: none; stroke-width: 0; stroke-dasharray: none; stroke-linecap: butt; stroke-linejoin: miter; stroke-miterlimit: 10; fill: none; fill-rule: nonzero; opacity: 1;" transform="translate(1.4065934065934016 1.4065934065934016) scale(2.81 2.81)" >
	<circle cx="45" cy="45" r="45" style="stroke: none; stroke-width: 1; stroke-dasharray: none; stroke-linecap: butt; stroke-linejoin: miter; stroke-miterlimit: 10; fill: rgb(96,96,96); fill-rule: nonzero; opacity: 1;" transform="  matrix(1 0 0 1 0 0) "/>
	<path d="M 64.421 66.833 H 19.524 c -3.322 0 -6.024 -2.702 -6.024 -6.023 V 35.246 c 0 -3.322 2.702 -6.024 6.024 -6.024 h 44.897 c 3.321 0 6.023 2.702 6.023 6.024 V 60.81 C 70.444 64.131 67.742 66.833 64.421 66.833 z M 19.524 34.222 c -0.564 0 -1.024 0.459 -1.024 1.024 V 60.81 c 0 0.564 0.459 1.023 1.024 1.023 h 44.897 c 0.564 0 1.023 -0.459 1.023 -1.023 V 35.246 c 0 -0.564 -0.459 -1.024 -1.023 -1.024 H 19.524 z" style="stroke: none; stroke-width: 1; stroke-dasharray: none; stroke-linecap: butt; stroke-linejoin: miter; stroke-miterlimit: 10; fill: rgb(59,59,59); fill-rule: nonzero; opacity: 1;" transform=" matrix(1 0 0 1 0 0) " stroke-linecap="round" />
	<rect x="16" y="53.38" rx="0" ry="0" width="51.94" height="5" style="stroke: none; stroke-width: 1; stroke-dasharray: none; stroke-linecap: butt; stroke-linejoin: miter; stroke-miterlimit: 10; fill: rgb(59,59,59); fill-rule: nonzero; opacity: 1;" transform=" matrix(1 0 0 1 0 0) "/>
	<circle cx="28.467" cy="43.547" r="6.007" style="stroke: none; stroke-width: 1; stroke-dasharray: none; stroke-linecap: butt; stroke-linejoin: miter; stroke-miterlimit: 10; fill: rgb(59,59,59); fill-rule: nonzero; opacity: 1;" transform="  matrix(1 0 0 1 0 0) "/>
	<path d="M 28.47 50.053 c -3.588 0 -6.507 -2.919 -6.507 -6.506 s 2.919 -6.506 6.507 -6.506 c 3.587 0 6.506 2.919 6.506 6.506 S 32.058 50.053 28.47 50.053 z M 28.47 38.04 c -3.037 0 -5.507 2.47 -5.507 5.506 c 0 3.037 2.47 5.506 5.507 5.506 c 3.036 0 5.506 -2.47 5.506 -5.506 C 33.977 40.51 31.506 38.04 28.47 38.04 z" style="stroke: none; stroke-width: 1; stroke-dasharray: none; stroke-linecap: butt; stroke-linejoin: miter; stroke-miterlimit: 10; fill: rgb(59,59,59); fill-rule: nonzero; opacity: 1;" transform=" matrix(1 0 0 1 0 0) " stroke-linecap="round" />
	<circle cx="38.657" cy="43.547" r="6.007" style="stroke: none; stroke-width: 1; stroke-dasharray: none; stroke-linecap: butt; stroke-linejoin: miter; stroke-miterlimit: 10; fill: rgb(59,59,59); fill-rule: nonzero; opacity: 1;" transform="  matrix(1 0 0 1 0 0) "/>
	<path d="M 38.655 50.053 c -3.587 0 -6.506 -2.919 -6.506 -6.506 s 2.919 -6.506 6.506 -6.506 s 6.506 2.919 6.506 6.506 S 42.243 50.053 38.655 50.053 z M 38.655 38.04 c -3.036 0 -5.506 2.47 -5.506 5.506 c 0 3.037 2.47 5.506 5.506 5.506 s 5.506 -2.47 5.506 -5.506 C 44.162 40.51 41.691 38.04 38.655 38.04 z" style="stroke: none; stroke-width: 1; stroke-dasharray: none; stroke-linecap: butt; stroke-linejoin: miter; stroke-miterlimit: 10; fill: rgb(59,59,59); fill-rule: nonzero; opacity: 1;" transform=" matrix(1 0 0 1 0 0) " stroke-linecap="round" />
	<path d="M 67.476 63.777 H 22.58 c -3.322 0 -6.024 -2.702 -6.024 -6.023 V 32.191 c 0 -3.322 2.702 -6.024 6.024 -6.024 h 44.896 c 3.322 0 6.024 2.702 6.024 6.024 v 25.563 C 73.5 61.075 70.798 63.777 67.476 63.777 z M 22.58 31.167 c -0.564 0 -1.024 0.459 -1.024 1.024 v 25.563 c 0 0.564 0.459 1.023 1.024 1.023 h 44.896 c 0.564 0 1.024 -0.459 1.024 -1.023 V 32.191 c 0 -0.564 -0.46 -1.024 -1.024 -1.024 H 22.58 z" style="stroke: none; stroke-width: 1; stroke-dasharray: none; stroke-linecap: butt; stroke-linejoin: miter; stroke-miterlimit: 10; fill: rgb(255,255,255); fill-rule: nonzero; opacity: 1;" transform=" matrix(1 0 0 1 0 0) " stroke-linecap="round" />
	<rect x="19.06" y="50.32" rx="0" ry="0" width="51.94" height="5" style="stroke: none; stroke-width: 1; stroke-dasharray: none; stroke-linecap: butt; stroke-linejoin: miter; stroke-miterlimit: 10; fill: rgb(255,255,255); fill-rule: nonzero; opacity: 1;" transform=" matrix(1 0 0 1 0 0) "/>
	<circle cx="31.527" cy="40.486999999999995" r="6.007" style="stroke: none; stroke-width: 1; stroke-dasharray: none; stroke-linecap: butt; stroke-linejoin: miter; stroke-miterlimit: 10; fill: rgb(255,255,255); fill-rule: nonzero; opacity: 1;" transform="  matrix(1 0 0 1 0 0) "/>
	<circle cx="41.707" cy="40.486999999999995" r="6.007" style="stroke: none; stroke-width: 1; stroke-dasharray: none; stroke-linecap: butt; stroke-linejoin: miter; stroke-miterlimit: 10; fill: rgb(255,255,255); fill-rule: nonzero; opacity: 1;" transform="  matrix(1 0 0 1 0 0) "/>
</g>
</svg>